<svg xmlns="http://www.w3.org/2000/svg" viewBox="0 0 160 160"><path d="M66.429 44.821L50.714 10.357 85.18 8.75l27.678 11.964-10.714 23.393-35.714.714zm40 2.322l16.071-13.75 7.5 27.5-6.607 4.821zm-69.306 10.2l-5.935 17.804 29.421 5.809-19.445 18.309 35.481 39.017c2.91-1.6 6.248-2.75 8.898-4.625l37.85-67.943-86.27-8.37z" fill="#000" fill-opacity=".077" stroke="#000"/><path d="M123.393 65.714c3.321 5.73 7.048 11.319 10.12 17.134l5.383 44.448 7.071 3.03-22.223 16.037-32.199-2.147-6.187-10.227z" fill="#000" fill-opacity=".077" stroke="#000"/><circle cx="42.886" cy="123.937" r="23.983" fill="#000" fill-opacity=".077" stroke="#000" stroke-linecap="round" stroke-linejoin="bevel" paint-order="markers fill stroke"/><circle cx="50.756" cy="53.035" r="14.063" fill="#000" fill-opacity=".077" stroke="#000" stroke-width=".586" stroke-linecap="round" stroke-linejoin="bevel" paint-order="markers fill stroke"/></svg>