<svg xmlns="http://www.w3.org/2000/svg" viewBox="0 0 280 280"><circle r="31.429" cy="108.036" cx="56.25" fill="#000" fill-opacity=".077" stroke="#000" stroke-linecap="round" stroke-linejoin="bevel" paint-order="markers fill stroke"/><path d="M109.855 84.788l-29.8-62.124 53.79 18.688 35.357 32.072-2.778 29.295z" fill="#000" fill-opacity=".077" stroke="#000"/><path d="M166.423 102.719l14.142-10.607 11.112 14.647 2.273 26.012z" fill="#000" fill-opacity=".077" stroke="#000"/><path d="M109.855 84.788l-19.698-1.767-27.148 56.19 7.706 15.61-4.286 13.036 22.322 29.822 105.199-64.908z" fill="#000" fill-opacity=".077" stroke="#000"/><circle r="45.268" cy="213.75" cx="131.251" fill="#000" fill-opacity=".077" stroke="#000" stroke-width="1.179" stroke-linecap="round" stroke-linejoin="bevel" paint-order="markers fill stroke"/><path d="M216.426 215.604s8.333-1.769 7.828-3.789c-.505-2.02.253-24.244.253-24.244l13.132 23.486 8.334 6.314 4.04 20.203z" fill="#000" fill-opacity=".077" stroke="#000"/><path d="M193.95 132.771l18.435 42.173 4.04 40.66 18.689 11.616-15.153 17.93-24.496 10.86-64.902 3.408z" fill="#000" fill-opacity=".077" stroke="#000"/></svg>