<?xml version="1.0" encoding="UTF-8" standalone="no"?>
<svg
   xmlns:dc="http://purl.org/dc/elements/1.1/"
   xmlns:cc="http://creativecommons.org/ns#"
   xmlns:rdf="http://www.w3.org/1999/02/22-rdf-syntax-ns#"
   xmlns:svg="http://www.w3.org/2000/svg"
   xmlns="http://www.w3.org/2000/svg"
   xmlns:sodipodi="http://sodipodi.sourceforge.net/DTD/sodipodi-0.dtd"
   xmlns:inkscape="http://www.inkscape.org/namespaces/inkscape"
   viewBox="0 0 340 280"
   version="1.1"
   id="svg6"
   sodipodi:docname="カタパッド.svg"
   inkscape:version="0.92.4 (5da689c313, 2019-01-14)">
  <metadata
     id="metadata12">
    <rdf:RDF>
      <cc:Work
         rdf:about="">
        <dc:format>image/svg+xml</dc:format>
        <dc:type
           rdf:resource="http://purl.org/dc/dcmitype/StillImage" />
      </cc:Work>
    </rdf:RDF>
  </metadata>
  <defs
     id="defs10" />
  <sodipodi:namedview
     pagecolor="#ffffff"
     bordercolor="#666666"
     borderopacity="1"
     objecttolerance="10"
     gridtolerance="10"
     guidetolerance="10"
     inkscape:pageopacity="0"
     inkscape:pageshadow="2"
     inkscape:window-width="1920"
     inkscape:window-height="1017"
     id="namedview8"
     showgrid="false"
     inkscape:zoom="2.38396"
     inkscape:cx="151.58276"
     inkscape:cy="155.46129"
     inkscape:window-x="-8"
     inkscape:window-y="-8"
     inkscape:window-maximized="1"
     inkscape:current-layer="svg6" />
  <path
     d="m 130.5,159.005 c -25.556,8.176 -51.14,16.266 -76.715,24.39 L 17.22,90.14 36.58,44.946 l 57.714,-27.26 64.527,30.128 -28.32,111.191 z"
     id="path826"
     style="stroke:#000000;stroke-opacity:1;fill:#000000;fill-opacity:0.07699998" />
  <path
     d="m 259.911,197.383 -67.752,-19.009 c -4.558,-21.853 -11.094,-43.443 -13.746,-65.609 -0.8,-14.962 -1.791,-29.912 -2.744,-44.865 l 117.94,22.239 13.621,55.595 c -6.226,1.685 -13.36,2.094 -19.019,4.576 z"
     id="path824"
     style="stroke:#000000;stroke-opacity:1;fill:#000000;fill-opacity:0.07699998" />
  <path
     d="m 175.669,67.9 25.093,-54.161 49.47,-10.76 64.885,39.814 7.17,13.63 -28.678,33.716 -117.94,-22.24 z"
     id="path2"
     style="stroke:#000000;stroke-opacity:1;fill:#000000;fill-opacity:0.07699998" />
  <path
     d="m 143.047,205.992 c 13.056,-3.55 25.834,-8.064 38.716,-12.195 l -20.792,-92.18 -40.866,13.27 z"
     id="path4"
     style="stroke:#000000;stroke-opacity:1;fill:#000000;fill-opacity:0.07699998" />
</svg>
