<svg xmlns="http://www.w3.org/2000/svg" viewBox="0 0 320 320"><g fill="#000" fill-opacity=".077" stroke="#000"><path d="M205.357 292.143H117.5l-11.429-31.072-25-5.357-3.214-16.428L241.071 235l-3.571 16.429-19.643.714zM84.095 77.31l48.235-50.76 93.692 21.719 44.446 65.912-186.373-36.87z"/><path d="M270.468 114.181l-25.506 88.389c3.36.177 10.291-5.035 10.906-.716l3.994 27.485-87.126 20.455 34.472-147.734 63.26 12.121zM58.715 227.571c2.4-8.165 4.798-16.33 7.197-24.496l12.375 6.818-28.79-86.62L64.902 85.14l37.376 12.121 33.84 158.594-77.403-28.284z"/></g></svg>