<svg xmlns="http://www.w3.org/2000/svg" viewBox="0 0 1000 1000"><circle cx="186.254" cy="193.318" r="144.725"/><rect width="517.125" height="148.463" x="412.733" y="54.386" rx="0" ry="0" paint-order="markers fill stroke"/><path d="M311.748 580.922l7.552 111.812-102.5-38.508-101.577 42.909 5.008-112.083L49.9 499.76l105.596-30.763 58.11-95.623 60.255 93.07 106.243 26.195-68.357 88.283zM581.973 412.05s44.88 63.792 6.249 92.53c-38.63 28.74-84.826-31.867-84.826-31.867s-44.146 58.062-84.06 35.51c-39.913-22.553 4.144-92.756 4.144-92.756s-77.215-17.09-58.201-70.584c19.014-53.494 87.387-25.458 87.387-25.458s.125-79.055 48.09-79.133c47.963-.079 49.863 77.02 49.863 77.02s68.915-32.98 87.922 21.678c19.008 54.658-56.568 73.06-56.568 73.06z" paint-order="markers fill stroke"/><path d="M193.993 966.185L140.6 832.703l117.464 71.19 1.78-138.82 97.886 74.75 1.78-217.13 92.547 193.993 128.142-238.487 69.41 53.392-80.088 37.375 56.952 103.226L742.157 638.71 642.49 531.925l80.09-163.737L852.5 604.895l-110.344 92.547 28.476 142.38 96.106-56.952 26.696 88.988-142.38 24.916-56.952-138.82-58.732 76.53 88.988 94.326 220.69-32.036-42.715 64.071zM743.758 241.14h187.513v256.729z"/><path d="M863.943 630.008l66.699 90.61-58.635 53.542s-23.795-73.677-24.424-80.599c-.63-6.921 16.36-63.553 16.36-63.553zM122.701 818.15l-50.968 49.08-56.631-89.35 63.553 19.506 3.775-81.172z"/></svg>