<svg xmlns="http://www.w3.org/2000/svg" viewBox="0 0 320 320"><path d="M119.264 196.632l-11.43 80.715 28.93 16.07 125.357 1.073z" fill-opacity=".077" stroke="#000"/><circle cx="93.791" cy="179.91" r="30.303" fill-opacity=".077" stroke="#000" stroke-width=".981" stroke-linecap="round" stroke-linejoin="bevel" paint-order="markers fill stroke"/><path d="M135.043 62.197c0-1.768 7.828-21.214 7.828-21.214l50.003 5.81 5.808 21.97zM215.514 81.99l16.607-10.714 32.143 31.072-6.25 25zM264.342 143.514c1.515 1.01 21.466 10.606 21.466 10.606l-1.01 47.983-27.022 5.808zM257.776 207.911l-2.525 59.725-20.452-9.932-10.714 10.536zM63.728 172.17l-43.57-23.573 19.106-26.43L27.3 101.811l51.785-43.393 14.822 14.106 25.357-15.535 4.464 15.714z" fill-opacity=".077" stroke="#000"/><path d="M264.342 143.514l-140.614-70.81 11.315-10.507 63.64 6.566 16.83 13.227 42.5 45.357z" fill-opacity=".077" stroke="#000"/><path d="M232.86 176.782h-61.83l30.916-53.547z" fill="red" fill-opacity=".077" stroke="red" stroke-linecap="round" stroke-linejoin="bevel" paint-order="markers fill stroke"/></svg>