<?xml version="1.0" encoding="UTF-8" standalone="no"?>
<svg
   xmlns:dc="http://purl.org/dc/elements/1.1/"
   xmlns:cc="http://creativecommons.org/ns#"
   xmlns:rdf="http://www.w3.org/1999/02/22-rdf-syntax-ns#"
   xmlns:svg="http://www.w3.org/2000/svg"
   xmlns="http://www.w3.org/2000/svg"
   xmlns:sodipodi="http://sodipodi.sourceforge.net/DTD/sodipodi-0.dtd"
   xmlns:inkscape="http://www.inkscape.org/namespaces/inkscape"
   viewBox="0 0 300 300"
   version="1.1"
   id="svg8"
   sodipodi:docname="ヘビ.svg"
   inkscape:version="0.92.4 (5da689c313, 2019-01-14)">
  <metadata
     id="metadata14">
    <rdf:RDF>
      <cc:Work
         rdf:about="">
        <dc:format>image/svg+xml</dc:format>
        <dc:type
           rdf:resource="http://purl.org/dc/dcmitype/StillImage" />
      </cc:Work>
    </rdf:RDF>
  </metadata>
  <defs
     id="defs12" />
  <sodipodi:namedview
     pagecolor="#ffffff"
     bordercolor="#666666"
     borderopacity="1"
     objecttolerance="10"
     gridtolerance="10"
     guidetolerance="10"
     inkscape:pageopacity="0"
     inkscape:pageshadow="2"
     inkscape:window-width="1920"
     inkscape:window-height="1017"
     id="namedview10"
     showgrid="false"
     inkscape:zoom="2.2250293"
     inkscape:cx="259.95004"
     inkscape:cy="58.803998"
     inkscape:window-x="-8"
     inkscape:window-y="-8"
     inkscape:window-maximized="1"
     inkscape:current-layer="svg8" />
  <circle
     r="48.393"
     cy="159.107"
     cx="56.964"
     fill="#000"
     fill-opacity=".077"
     stroke="#000"
     stroke-linecap="round"
     stroke-linejoin="bevel"
     paint-order="markers fill stroke"
     id="circle2" />
  <circle
     r="31.779"
     cy="235"
     cx="213.928"
     fill="#000"
     fill-opacity=".077"
     stroke="#000"
     stroke-width=".657"
     stroke-linecap="round"
     stroke-linejoin="bevel"
     paint-order="markers fill stroke"
     id="circle4"
     style="stroke:#ff0000;stroke-opacity:1;fill:#ee0000;fill-opacity:0.07699998" />
  <path
     d="M277.792 272.726c-2.02-2.02-13.637-39.9-15.152-39.9-1.516 0-139.402 12.374-139.402 12.374l16.92 22.728 26.264 12.374zM123.238 245.2l-4.545-27.527 3.788-11.87-20.203-2.02-10.607-11.364 38.639 7.576zM69.953 18.168l10.354 53.285-5.303 31.82 25.001-17.172 23.233-54.044zm53.285 13.89l27.275-2.273 20.203 21.97 55.81-6.818 56.822 25.254.252 42.173zM283.6 112.365s-9.091 19.697-9.849 19.697c-.757 0-21.592-3.788-21.592-3.788l-13.772 15.776-68.658-88.92zm-44.314 33.707l11.071 7.5-13.393 36.785-49.821 11.072z"
     fill="#000"
     fill-opacity=".077"
     stroke="#000"
     id="path6" />
</svg>
