<?xml version="1.0" encoding="UTF-8" standalone="no"?>
<svg
   xmlns:dc="http://purl.org/dc/elements/1.1/"
   xmlns:cc="http://creativecommons.org/ns#"
   xmlns:rdf="http://www.w3.org/1999/02/22-rdf-syntax-ns#"
   xmlns:svg="http://www.w3.org/2000/svg"
   xmlns="http://www.w3.org/2000/svg"
   xmlns:sodipodi="http://sodipodi.sourceforge.net/DTD/sodipodi-0.dtd"
   xmlns:inkscape="http://www.inkscape.org/namespaces/inkscape"
   viewBox="0 0 180 320"
   version="1.1"
   id="svg10"
   sodipodi:docname="タワー.svg"
   inkscape:version="0.92.4 (5da689c313, 2019-01-14)">
  <metadata
     id="metadata16">
    <rdf:RDF>
      <cc:Work
         rdf:about="">
        <dc:format>image/svg+xml</dc:format>
        <dc:type
           rdf:resource="http://purl.org/dc/dcmitype/StillImage" />
      </cc:Work>
    </rdf:RDF>
  </metadata>
  <defs
     id="defs14" />
  <sodipodi:namedview
     pagecolor="#ffffff"
     bordercolor="#666666"
     borderopacity="1"
     objecttolerance="10"
     gridtolerance="10"
     guidetolerance="10"
     inkscape:pageopacity="0"
     inkscape:pageshadow="2"
     inkscape:window-width="1920"
     inkscape:window-height="1017"
     id="namedview12"
     showgrid="false"
     inkscape:zoom="4.17193"
     inkscape:cx="98.36945"
     inkscape:cy="202.04247"
     inkscape:window-x="-8"
     inkscape:window-y="-8"
     inkscape:window-maximized="1"
     inkscape:current-layer="svg10"
     showguides="false" />
  <path
     style="fill:#000000;fill-opacity:0.07699998;stroke:#000000"
     d="m 69.123,14.383 21.072,22.858 11.071,-2.143 10,8.571 18.214,-2.5 -5.714,26.429 H 57.695 L 50.909,36.169 Z"
     id="path840" />
  <path
     style="fill:#000000;fill-opacity:0.07699998;stroke:#000000"
     d="m 56.507,296.002 -3.41,11.743 14.395,1.136 10.01,-10.157 z"
     id="path828" />
  <path
     style="fill:#000000;fill-opacity:0.07699998;stroke:#000000"
     d="m 111.707,300.072 5.535,9.314 c 0,0 15.91,0.38 14.774,-0.63 -1.136,-1.011 -6.896,-20.298 -6.896,-20.298 z"
     id="path4" />
  <path
     style="fill:#000000;fill-opacity:0.07699998;stroke:#000000"
     d="m 44.259,266.96 -6.566,26.39 69.953,9.723 25.38,-21.466 z"
     id="path6" />
  <path
     style="fill:#000000;stroke:#000000;stroke-width:1px;stroke-linecap:butt;stroke-linejoin:miter;stroke-opacity:1;fill-opacity:0.07699998"
     d="M 68.755,270.748 39.669889,242.09841 58.527,236.656 l 90.409,4.293 -15.91,40.658 z"
     id="path866"
     inkscape:connector-curvature="0"
     sodipodi:nodetypes="cccccc" />
  <path
     style="fill:#000000;stroke:#000000;stroke-width:1px;stroke-linecap:butt;stroke-linejoin:miter;stroke-opacity:1;fill-opacity:0.07699998"
     d="m 58.527,236.656 -11.617,-19.193 11.87,-6.566 65.912,-6.566 20.203,1.262 -8.16351,34.6758 z"
     id="path870"
     inkscape:connector-curvature="0"
     sodipodi:nodetypes="ccccccc" />
  <path
     style="fill:#000000;stroke:#000000;stroke-width:1px;stroke-linecap:butt;stroke-linejoin:miter;stroke-opacity:1;fill-opacity:0.07699998"
     d="m 58.78,210.897 -13.89,-11.87 12.375,-12.374 67.175,-20.456 0.252,38.134 z"
     id="path872"
     inkscape:connector-curvature="0"
     sodipodi:nodetypes="cccccc" />
  <path
     style="fill:#000000;stroke:#000000;stroke-width:1px;stroke-linecap:butt;stroke-linejoin:miter;stroke-opacity:1;fill-opacity:0.07699998"
     d="m 57.265,186.653 -17.678,-25.759 7.829,-6.061 51.012,-14.9 6.566,32.073 z"
     id="path874"
     inkscape:connector-curvature="0"
     sodipodi:nodetypes="cccccc" />
  <path
     style="fill:#000000;fill-opacity:0.07699998;stroke:#000000;stroke-width:1px;stroke-linecap:butt;stroke-linejoin:miter;stroke-opacity:1"
     d="M 91.836394,113.31045 91.105,142.28727 47.416,154.833 32.817394,126.88145 Z"
     id="path876"
     inkscape:connector-curvature="0"
     sodipodi:nodetypes="ccccc" />
  <path
     style="fill:#000000;fill-opacity:0.07699998;stroke:#000000;stroke-width:1px;stroke-linecap:butt;stroke-linejoin:miter;stroke-opacity:1"
     d="M 164.659,90.097 96.291741,75.801303 103.36942,63.164435 166.98,78.49 Z"
     id="path891"
     inkscape:connector-curvature="0"
     sodipodi:nodetypes="ccccc" />
  <path
     style="fill:#000000;stroke:#000000;stroke-width:1px;stroke-linecap:butt;stroke-linejoin:miter;stroke-opacity:1;fill-opacity:0.07699998"
     d="m 45.314849,123.91633 -2.16935,-30.789743 45.302773,5.15349 -6.112279,16.778803 z"
     id="path908"
     inkscape:connector-curvature="0"
     sodipodi:nodetypes="ccccc" />
  <path
     style="fill:#000000;stroke:#000000;stroke-width:1px;stroke-linecap:butt;stroke-linejoin:miter;stroke-opacity:1;fill-opacity:0.07699998"
     d="M 47.100503,93.486133 64.598399,57.531551 100.91253,67.598833 83.894025,97.560985 Z"
     id="path910"
     inkscape:connector-curvature="0" />
</svg>
