<svg xmlns="http://www.w3.org/2000/svg" width="752" height="336"><g stroke-width=".739" fill="#405261"><path d="M264.624 152.851h50.465c.373 0 .676.303.676.677v13.646a.677.677 0 01-.676.677h-33.307a.677.677 0 00-.677.676v13.42c0 .373.303.676.677.676h25.578c.373 0 .677.303.677.677v13.192a.677.677 0 01-.677.676h-25.578a.677.677 0 00-.677.677v15.01c0 .374.303.677.677.677h35.807c.373 0 .676.303.676.676v13.76a.677.677 0 01-.676.676h-52.963a.677.677 0 01-.677-.677v-74.44a.675.675 0 01.675-.676zm87.404 0h18.035c.284 0 .537.177.636.444l27.231 74.44a.677.677 0 01-.635.909h-17.296a.676.676 0 01-.641-.463l-5.487-16.46a.676.676 0 00-.641-.463H347.5c-.29 0-.549.186-.64.462l-5.486 16.46a.676.676 0 01-.642.464H324.24a.676.676 0 01-.633-.914l27.79-74.44a.667.667 0 01.63-.439zm17.314 44.228l-8.286-25.773c-.2-.624-1.08-.627-1.286-.004l-8.489 25.773a.676.676 0 00.643.887h16.773c.46 0 .786-.446.645-.883zm41.839 9.479a.67.67 0 01.977-.01 37.465 37.465 0 002.974 2.722 29.182 29.182 0 004.432 3.012c1.628.909 3.41 1.647 5.34 2.216 1.933.568 3.996.852 6.194.852a13.59 13.59 0 003.862-.568 12.462 12.462 0 003.523-1.648 8.852 8.852 0 002.557-2.614c.643-1.022.965-2.176.965-3.465 0-2.802-1.363-4.981-4.089-6.534-2.729-1.55-7.045-3.086-12.954-4.601-2.88-.682-5.552-1.666-8.011-2.956-2.464-1.287-4.586-2.84-6.364-4.658a19.774 19.774 0 01-4.148-6.25c-.986-2.347-1.477-4.96-1.477-7.84 0-3.182.568-6.174 1.705-8.977 1.136-2.802 2.858-5.284 5.17-7.443 2.31-2.16 5.188-3.864 8.636-5.114 3.447-1.25 7.519-1.875 12.216-1.875 3.862 0 7.272.398 10.227 1.193 2.956.796 5.472 1.744 7.557 2.841 2.083 1.099 3.787 2.235 5.113 3.41a91.538 91.538 0 012.54 2.322.676.676 0 01.033.944l-9.022 9.955a.663.663 0 01-.911.08 69.07 69.07 0 00-2.412-1.825 26.54 26.54 0 00-3.694-2.216 25.064 25.064 0 00-4.488-1.704c-1.629-.455-3.352-.682-5.17-.682-1.211 0-2.404.19-3.579.568a12.47 12.47 0 00-3.181 1.534c-.949.644-1.705 1.403-2.274 2.273-.569.872-.853 1.8-.853 2.784 0 2.576 1.365 4.659 4.091 6.25 2.727 1.59 6.477 2.916 11.25 3.977 2.8.682 5.55 1.61 8.238 2.784 2.688 1.176 5.095 2.71 7.216 4.602 2.119 1.894 3.825 4.224 5.112 6.989 1.288 2.766 1.933 6.117 1.933 10.056 0 3.41-.758 6.554-2.274 9.433-1.515 2.879-3.579 5.38-6.191 7.5-2.615 2.121-5.682 3.769-9.206 4.942-3.523 1.174-7.33 1.762-11.419 1.762-3.789 0-7.236-.36-10.342-1.08-3.107-.72-5.909-1.664-8.409-2.841-2.5-1.173-4.755-2.518-6.76-4.034-1.815-1.368-3.396-2.767-4.745-4.197a.68.68 0 01.005-.928zm59.797-53.707h50.464c.374 0 .677.303.677.677v13.646a.677.677 0 01-.677.677h-33.305a.677.677 0 00-.677.676v13.42c0 .373.303.676.677.676h25.578c.374 0 .677.303.677.677v13.192a.677.677 0 01-.677.676h-25.578a.677.677 0 00-.677.677v15.01c0 .374.303.677.677.677h35.807c.373 0 .676.303.676.676v13.76a.677.677 0 01-.676.676h-52.965a.677.677 0 01-.676-.677v-74.44a.675.675 0 01.675-.676zm65.338 0h15.806c.373 0 .676.303.676.677v59.212c0 .374.304.677.677.677h34.898c.373 0 .676.303.676.676v13.874a.677.677 0 01-.676.677h-52.055a.677.677 0 01-.677-.677v-74.44a.675.675 0 01.675-.676zm64.847 60.892a.677.677 0 01.946.06c2.05 2.243 4.116 3.897 6.2 4.954 2.233 1.137 4.903 1.705 8.01 1.705 1.82 0 3.505-.284 5.058-.852a11.302 11.302 0 004.147-2.67c1.21-1.213 2.16-2.766 2.841-4.66.682-1.892 1.023-4.165 1.023-6.818v-51.934c0-.374.303-.677.676-.677h9.556c.374 0 .677.303.677.677v52.843c0 4.396-.646 8.125-1.934 11.193-1.287 3.068-3.01 5.567-5.169 7.5-2.16 1.932-4.679 3.335-7.556 4.203-2.88.871-5.91 1.308-9.092 1.308-5.608 0-10.19-.986-13.75-2.955-3.359-1.856-6.177-4.187-8.456-6.988a.69.69 0 01.084-.945zm55.335-3.05a.662.662 0 01.945.045 54.667 54.667 0 003.135 3.191 25.151 25.151 0 004.488 3.354c1.664.986 3.523 1.78 5.568 2.386 2.046.608 4.279.91 6.705.91 4.998 0 8.9-1.137 11.702-3.41 2.802-2.274 4.205-5.34 4.205-9.205 0-4.166-1.591-7.29-4.773-9.375-3.181-2.082-7.766-3.768-13.75-5.057-3.257-.682-6.211-1.627-8.863-2.84-2.653-1.212-4.943-2.728-6.875-4.546a19.414 19.414 0 01-4.488-6.307c-1.06-2.386-1.591-5.094-1.591-8.125 0-2.801.53-5.454 1.59-7.954 1.061-2.5 2.652-4.697 4.773-6.59 2.12-1.893 4.773-3.41 7.955-4.546 3.183-1.136 6.854-1.705 11.022-1.705 3.71 0 6.912.398 9.602 1.194 2.688.795 4.981 1.76 6.875 2.897 1.893 1.137 3.41 2.312 4.546 3.523.9.96 1.631 1.777 2.2 2.452a.677.677 0 01-.058.937l-6.3 5.807a.668.668 0 01-.944-.028c-.418-.45-.952-.987-1.604-1.612-.91-.87-2.065-1.722-3.466-2.556-1.403-.834-3.03-1.534-4.885-2.102-1.857-.569-3.997-.853-6.42-.853-2.426 0-4.51.324-6.25.966-1.744.645-3.183 1.477-4.318 2.5-1.135 1.023-1.971 2.178-2.5 3.466-.532 1.29-.796 2.576-.796 3.863 0 1.894.398 3.506 1.194 4.83.795 1.326 1.949 2.5 3.465 3.523 1.515 1.022 3.39 1.893 5.625 2.613 2.234.721 4.79 1.42 7.67 2.102a58.264 58.264 0 018.239 2.67 25.575 25.575 0 017.216 4.432c2.12 1.858 3.806 4.13 5.056 6.819s1.875 5.965 1.875 9.829c0 3.259-.681 6.25-2.045 8.978-1.364 2.727-3.239 5.096-5.625 7.102-2.386 2.008-5.21 3.562-8.466 4.658-3.257 1.098-6.781 1.65-10.568 1.65-3.561 0-6.8-.419-9.717-1.252-2.916-.832-5.568-1.891-7.954-3.182-2.386-1.288-4.47-2.708-6.25-4.261-1.588-1.383-2.918-2.753-3.993-4.107a.678.678 0 01.084-.919zm-495.28-80.675h-54.746l3.411-18.212a2.705 2.705 0 012.657-2.207h42.589c1.298 0 2.414.925 2.655 2.203zm21.447 113.45H155.27l5.266 26.29a2.704 2.704 0 002.65 2.175h21.55a2.705 2.705 0 002.655-3.208zm-102.172 25.26a2.705 2.705 0 002.657 3.205h21.554c1.287 0 2.397-.91 2.65-2.176l5.248-26.29H85.21zm134.583-123.877v83.703c0 4.483-3.63 8.117-8.107 8.117H60.849c-4.478 0-8.109-3.634-8.109-8.117v-83.703c0-4.483 3.63-8.117 8.109-8.117h146.118c4.478 0 8.109 3.634 8.109 8.117zm-79.965 46.486c0-12.484-10.118-22.603-22.602-22.603-12.483 0-22.602 10.119-22.602 22.603 0 12.483 10.119 22.602 22.602 22.602 12.484 0 22.602-10.12 22.602-22.602zm45.504 22.479l-33.897-58.711-10.74 18.602a29.214 29.214 0 015.897 17.63c0 9.013-4.085 17.088-10.499 22.479z"/><text y="221.005" x="160.661" style="line-height:1.25" font-weight="400" font-size="40" font-family="sans-serif" letter-spacing="0" word-spacing="0" transform="matrix(1.35278 0 0 1.35278 41.918 -174.486)"><tspan y="221.005" x="160.661">POWERD BY</tspan></text></g></svg>