<svg xmlns="http://www.w3.org/2000/svg" width="230" height="153"><path d="M54.444 21.892c8.91-4.266 1.43-15.133-7.89-10.35-3.68 1.915-5.38 5.515-2.56 8.31 2.26 2.217 7 3.696 10.45 2.04zm164.78 50.388c-6.19 5.418 6.76 10.992 10.13 5.44 2.72-4.509-5.36-9.647-10.13-5.44zM48.994 5.51c4-.74 3.23-5.411-1-4.827-4.23.584-2.94 5.552 1 4.827zm17.13 6.143c6-1.101 4.72-8.213-1.72-7.185-6.03.953-4.12 8.25 1.72 7.185zm147.44 100.495c-3.18-1.346-6.75.177-8 2.61-2.69 5.174 8.33 8.93 11.34 3.969 1.69-2.831.09-5.145-3.34-6.58zm-.14 12.352c-4.6-1.382-7.57 4.148-3.06 5.25 4.51 1.1 7.77-3.838 3.06-5.25zM9.274 65.811c-8.09-2.343-13.28 7.348-5.28 9.278 8 1.93 13.66-6.831 5.28-9.278zm34.95 69.594c-3.41-.74-5.75.702-6.8 2.52a4.54 3.356 0 002.57 4.643 5 3.696 0 006.83-1.907c.85-1.479.82-4.547-2.6-5.256zm128.99-27.02c4.22-2.839 6.77-5.012 8.11-10.682 1.23-5.175 11.23-2.958 13.54-1.553a21.15 15.635 0 0014.13 3.467c4.12-.229 7.65-2.299 8-4.975.49-3.696-4.63-6.395-9-7.208-4.56-.842-9.84.274-14.78.148-4.29-.11-8.92-1.545-8.35-6.89.21-1.914 3.27-4.354 7.8-3.763 9.77 1.265 13.33-1.375 12.5-4.435-.83-3.06-4.93-4.532-12.67-2.077-4.54 1.478-8.65-.06-9.76-1.405-3-3.57-2.43-5.419-.55-7.326a13.69 10.12 0 0110.06-4.132c8.57-.326 12.09-1.095 16-5.175 4.53-4.746.53-10.535-6.77-11.717-6.44-1.043-12.33 1.315-16.3 4.908-3.42 3.09-11 9.714-21.63 3.652-12.15-6.949 8.52-17.505 12.29-21.749 8.56-9.61-4.16-20.64-18.37-15.332-6.71 2.536-8.2 7.8-9.14 12.885-.75 4.015.67 9.219-4.72 11.304-8 3.104-27 .399-28-5.974-.78-4.842 1.28-8.028 2.6-12.567 1.46-5.034-.48-10.113-8-11.444a12.25 9.056 0 00-14.55 6.07c-3 7.274 14.76 21.209 1.37 25.356-3.77 1.168-8 1.116-10.14-.266-3.54-2.321-4.66-4.17-4.64-6.535 0-3.482-5.09-5.079-7.89-4.384-3.7.917-6.66 4.236-1.85 7.947 3.17 2.44 5.34 3.903 5.35 6.727 0 5.109-3.46 6.173-5.52 6.654-11.04 2.247-15.48-12.095-21.34-16.353-7.84-5.662-20.87-3.489-23.86 4.48-3.75 10.002 8.65 17.336 20.15 18.593 7.13.783 11.08 3.74 9.93 8.205-1 3.977-6.84 6.299-13 2.957-6.16-3.341-13.34-3.349-15.22.836-1.88 4.184 4.66 7.762 12.32 6.882 6.37-.74 11.75 1.279 11 5.914-.59 3.696-3.83 5.478-10.36 4.746-6.53-.732-12.43-4.184-20.21-2.292a9.73 7.193 0 00-5 11.26c4.57 4.745 13.59 4.154 20.46 2.402 4.09-1.042 11.41-4.11 16.42-.74 4.52 3.061.76 10.823-3.76 13.95-4.34 3.01-15.06 2.957-17.05 7.703a8.57 6.335 0 006.46 8.184c6.86.62 8.57-3.43 11.73-7.393 2.3-2.86 9-6.764 13.77-1.426 2.07 2.336 4 8.752 10.49 9.425 9.84 1.013 11.63 7.164 7.66 10.682-3.39 3.017-6.53 6.373-6.51 10.269a9.11 6.735 0 008.66 6.793c6.06.215 9.52-3.607 9.33-7.466-.17-3.342-1.21-8.058 1.23-11.155 3.16-4.022 17.91-3.187 17 2.957-.41 2.72 1.12 5.537 6.11 5.492 3.27 0 6.19-2.58 5-6.653-.71-2.403 1.57-4.044 4.41-5.241 2.84-1.198 7.94-.688 9.43-.156 11.91 4.266 1.3 12.472 10.63 18.386a9.75 7.208 0 0010.18.909c2.85-1.116 4.24-2.757 4-5.581-.36-4.924-6.31-5.914-9.1-10.956-2.47-4.48-2.65-9.07 4.27-11.296 7.16-2.3 12.79 2.735 15.09 5.855 2.16 2.957 4.33 4.561 9.23 5.234 7.06.968 10.94-5.33 5.65-8.938-5.29-3.607-7.59-3.223-12.33-5.337-3.69-1.575-7.01-7.282-1.99-10.66z" stroke-width="1.163"/></svg>