<svg xmlns="http://www.w3.org/2000/svg" width="230" height="300"><path d="M55.53 29.342c8.872-5.745 1.424-20.383-7.857-13.94-3.664 2.579-5.357 7.428-2.549 11.192 2.25 2.987 6.97 4.979 10.406 2.748zm164.081 67.871c-6.163 7.3 6.732 14.807 10.087 7.33 2.709-6.075-5.337-12.995-10.087-7.33zM50.103 7.276c3.983-.995 3.216-7.289-.996-6.502-4.212.787-2.927 7.478.996 6.502zm17.057 8.275c5.975-1.484 4.7-11.063-1.712-9.679-6.005 1.285-4.103 11.113 1.712 9.68zm146.815 135.364c-3.166-1.812-6.721.239-7.966 3.515-2.678 6.97 8.295 12.029 11.292 5.347 1.683-3.814.09-6.93-3.326-8.862zm-.14 16.639c-4.58-1.862-7.537 5.586-3.046 7.07 4.49 1.484 7.737-5.168 3.047-7.07zM10.552 88.5c-8.055-3.157-13.223 9.897-5.257 12.496 7.966 2.6 13.602-9.2 5.257-12.496zm34.802 93.74c-3.395-.995-5.725.946-6.77 3.396a4.52 4.52 0 002.558 6.253 4.979 4.979 0 006.801-2.569c.847-1.991.817-6.124-2.589-7.08zm128.443-36.395c4.203-3.823 6.742-6.75 8.076-14.388 1.225-6.97 11.182-3.983 13.483-2.091a21.06 21.06 0 0014.07 4.67c4.102-.309 7.617-3.097 7.966-6.702.488-4.979-4.61-8.613-8.962-9.708-4.54-1.136-9.798.368-14.717.199-4.272-.15-8.883-2.081-8.315-9.28.21-2.58 3.256-5.866 7.767-5.07 9.729 1.704 13.273-1.851 12.447-5.974-.827-4.122-4.91-6.104-12.616-2.798-4.521 1.992-8.614-.08-9.719-1.892-2.987-4.81-2.42-7.299-.548-9.868a13.632 13.632 0 0110.018-5.566c8.533-.438 12.038-1.474 15.932-6.97 4.51-6.393.528-14.19-6.741-15.783-6.413-1.404-12.278 1.772-16.231 6.612-3.406 4.162-10.954 13.084-21.539 4.919-12.098-9.36 8.484-23.58 12.238-29.296 8.524-12.944-4.142-27.801-18.292-20.652-6.681 3.416-8.165 10.506-9.101 17.356-.747 5.407.667 12.418-4.7 15.226-7.966 4.182-26.886.537-27.881-8.046-.777-6.522 1.274-10.814 2.589-16.928 1.453-6.781-.478-13.622-7.966-15.414a12.198 12.198 0 00-14.489 8.175c-2.987 9.798 14.698 28.568 1.364 34.154-3.754 1.574-7.966 1.504-10.097-.358-3.525-3.127-4.64-5.616-4.62-8.803 0-4.69-5.068-6.84-7.856-5.905-3.685 1.235-6.632 5.706-1.843 10.705 3.157 3.286 5.318 5.258 5.328 9.061 0 6.881-3.446 8.315-5.497 8.962-10.993 3.027-15.414-16.29-21.25-22.026-7.806-7.628-20.78-4.7-23.758 6.034-3.734 13.473 8.613 23.35 20.064 25.044 7.1 1.055 11.033 5.038 9.888 11.053-.996 5.357-6.81 8.483-12.945 3.983-6.134-4.501-13.283-4.511-15.155 1.125-1.872 5.636 4.64 10.455 12.268 9.27 6.343-.995 11.7 1.723 10.953 7.966-.588 4.98-3.814 7.379-10.316 6.393-6.502-.986-12.377-5.636-20.124-3.087a9.689 9.689 0 00-4.98 15.166c4.551 6.393 13.533 5.596 20.374 3.236 4.073-1.404 11.362-5.536 16.35-.996 4.501 4.123.757 14.578-3.744 18.79-4.321 4.053-14.996 3.983-16.977 10.376a8.534 8.534 0 006.432 11.023c6.831.837 8.534-4.62 11.68-9.957 2.29-3.854 8.962-9.112 13.712-1.922 2.061 3.146 3.983 11.79 10.446 12.696 9.798 1.364 11.58 9.649 7.627 14.388-3.375 4.063-6.502 8.584-6.482 13.832a9.071 9.071 0 008.623 9.15c6.034.29 9.48-4.859 9.29-10.057-.169-4.5-1.204-10.853 1.225-15.026 3.147-5.417 17.834-4.291 16.928 3.983-.408 3.665 1.115 7.459 6.084 7.399 3.256 0 6.164-3.475 4.98-8.962-.708-3.236 1.562-5.447 4.39-7.06 2.828-1.613 7.907-.926 9.39-.209 11.86 5.746 1.295 16.798 10.585 24.765a9.709 9.709 0 0010.137 1.224c2.838-1.503 4.222-3.714 3.983-7.518-.358-6.631-6.283-7.966-9.061-14.757-2.46-6.034-2.639-12.218 4.252-15.215 7.13-3.097 12.736 3.684 15.026 7.886 2.15 3.983 4.311 6.144 9.19 7.05 7.03 1.305 10.894-7.18 5.627-12.038-5.268-4.86-7.558-4.342-12.278-7.19-3.674-2.12-6.98-9.808-1.982-14.359z" stroke-width="1.004"/></svg>