<svg xmlns="http://www.w3.org/2000/svg" width="230" height="300"><g data-name="レイヤー 2"><g data-name="レイヤー 1" stroke-width=".836"><path d="M220.144 116.282c-3.706-3.587-9.433-5.357-15.005-5.201-5.273.143-11.957.359-16.74-1.77-4.782-2.128-7.855-8.44-4.662-12.65a10.76 10.76 0 016.408-3.455c7.653-1.71 15.879-.395 23.232-3.097s11.73-11.12 7.042-17.337c-3.587-4.71-11.837-5.703-16.942-1.423-6.373 5.345-12.566 8.717-18.413 8.011-7.449-.908-9.757-5.56-7.174-10.832 1.554-3.12 5.38-4.22 8.166-6.325 3.91-2.93 5.787-8.597 3.719-13.009-2.069-4.412-8.19-6.468-12.256-3.694-4.531 3.12-6.097 9.015-10.76 10.76a8.812 8.812 0 01-11.813-6.432c-1.196-5.823 2.39-13.093 6.05-17.803 4.722-6.182 10.868-13.607 7.711-20.721-2.821-6.349-12.064-7.497-17.934-3.838-5.87 3.659-9.565 8.884-11.132 17.074-1.291 6.815-.215 14.85-4.782 20.039-4.568 5.189-13.152 5.249-17.086.849-3.587-3.958-.108-9.852-2.02-14.838a8.967 8.967 0 00-9.71-5.428 8.573 8.573 0 00-7.066 8.094c-.155 4.938 2.798 7.174 1.71 10.39-1.303 3.814-7.485 5.022-11.024 3.097-3.539-1.925-5.512-5.87-6.576-9.756s-1.435-7.975-2.93-11.73c-2.39-5.894-7.843-10.76-14.168-11.18-6.325-.418-12.925 4.281-13.534 10.594-.323 3.312.884 6.564 2.247 9.566 2.26 5.081 8.06 10.76 13.272 15.543 3.264 3.025 4.352 7.628 4.783 10.701a7.58 7.58 0 01-5.44 7.82c-3.085.74-6.242-1.351-8.525-3.587-4.245-4.09-8.513-9.123-13.26-13.152-4.747-4.03-13.774-5.465-19.92-4.472a11.359 11.359 0 00-9.433 13.45c.466 2.858 3.431 6.971 9.565 9.77 4.914 2.223 23.183 3.79 27.763 6.779 5.882 3.838 3.981 8.596 2.056 9.362-2.762 1.1-5.452-.275-8.465-2.08a14.42 14.42 0 00-10.856-2.01c-4.903 1.28-5.644 6.66-2.774 9.171 2.463 2.152 7.341 1.638 10.127 1.734 2.786.095 6.217 1.65 5.978 4.436-.24 3.347-5.87 5.057-9.183 4.567-6.097-.897-14.479-1.662-20.493-.31-6.014 1.35-11.741 5.116-14.073 10.748-2.331 5.631-.239 13.296 5.38 15.794 6.05 2.69 12.973-1.052 18.127-5.224 5.153-4.173 10.462-9.171 17.145-9.279 5.022-.083 5.548 5.847 2.511 9.852-3.037 4.006-10.21 1.112-13.367 4.783-1.877 2.224-1.064 5.978 1.195 7.712a8.991 8.991 0 008.37.968c2.977-1.004 5.596-3.096 8.716-3.49 3.121-.395 5.094 2.665 3.994 5.607a5.488 5.488 0 01-1.614 2.08c-3.264 2.894-5.56 3.037-9.458 4.986-3.898 1.949-7.664 5.022-8.585 9.29a7.891 7.891 0 008.214 9.362c5.01-.239 7.916-5.572 9.661-10.235 1.555-4.149 6.804-7.018 9.637-5.021 3.468 2.39 2.164 5.787-2.582 11.956-2.63 3.444-5.476 7.258-4.723 11.526a6.995 6.995 0 009.565 4.974c6.731-2.822 2.463-15.185 8.848-12.22 6.803 3.145 5.404 23.065 6.241 28.553 2.272 14.957 8.154 4.782 5.022 24.522-.443 2.774-1.052 6.325-.251 9.016.932 3.108 4.782 4.782 7.174 3.395 5.356-3.144-.574-29.724 4.507-35.008 3.826-3.982 8.824 5.571 10.761 10.76 5.703 14.874 6.468 37.233 4.878 56.686-.67 8.25-4.65 17.349-2.57 25.36 1.195 4.651 4.59 6.432 9.242 6.098a7.556 7.556 0 004.878-2.954c4.077-6.121 1.196-15.914.658-24.773-1.112-20.111 0-36.061 4.663-58.91.968-4.783 3.049-10.63 7.891-10.916 2.738-.168 4.58 1.482 8.047 1.53 7.078.108 9.302-4.46 9.685-9.756.49-6.863 1.315-22.514 6.456-21.761 4.651.681 7.485-4.197 7.03-9.864-.43-5.369 1.698-8.501 3.958-8.226 6.42.789 5.715 5.787 10.08 11.86 2.39 3.312 8.764 4.102 11.956.921a8.62 8.62 0 002.224-8.477c-1.016-4.723-5.046-8.597-9.219-10.76-9.063-4.783-11.287-10.666-9.565-14.062 2.953-5.906 12.901-3.395 19.968-.514 7.066 2.882 16.535 5.536 21.222-.49 3.193-4.065 2.069-8.441-1.65-12.076z"/><path d="M179.612 184.59c2.893-5.608 13.606-5.44 16.07 1.362 2.056 5.644-2.296 13.774-8.597 13.153a9.685 9.685 0 01-7.473-14.516zM197.905 51.12c-2.391-3.791 1.543-10.295 6.6-9.363 4.197.765 7.616 6.35 4.95 9.96a6.875 6.875 0 01-11.55-.598zM55.001 194.812c-2.391-3.79 1.543-10.294 6.6-9.362 4.197.765 7.617 6.35 4.95 9.96a6.875 6.875 0 01-11.55-.598zM215.708 141.618c1.913-4.783 10.594-5.452 13.153-.132 2.092 4.412-.802 11.335-5.979 11.263a7.88 7.88 0 01-7.174-11.131zM90.715 15.238c-.382-3.838 4.28-5.979 7.557-4.352 3.276 1.626 3.503 7.711-.598 8.907a5.392 5.392 0 01-6.959-4.555zM18.976 87.36c2.583 2.857.096 7.317-3.49 7.998-3.588.682-7.39-4.185-4.783-7.592a5.392 5.392 0 018.273-.407zM166.292 179.663c-.263-2.594 2.894-4.017 5.118-2.941 2.224 1.076 2.391 5.237-.43 6.062a3.587 3.587 0 01-4.688-3.12zM1.663 90.97c1.363-1.865 4.233-1.004 5.034.98.801 1.985-1.602 4.783-3.874 3.767a3.157 3.157 0 01-1.16-4.747zM47.158 180.237c-.263-2.594 2.893-4.017 5.117-2.941 2.224 1.076 2.392 5.237-.43 6.062a3.587 3.587 0 01-4.687-3.12zM141.985 218.82c2.295-1.195 4.782 1.196 4.663 3.588-.12 2.391-3.97 4.149-5.775 1.889a3.587 3.587 0 011.112-5.476z"/></g></g></svg>