<svg xmlns="http://www.w3.org/2000/svg" width="200" height="200"><path d="M85.232 6.866L5.589 59.018 89.482 98.7l-1.567-33.841c14.174 3.793 39.466 12.228 41.517 24.635 3.63 21.956-9.948 28.044-28.045 34.999-14.104 5.42-20.408 5.188-20.408 5.188s2.604 19.841 2.604 31.466c0 11.624-2.003 31.066-2.003 31.066s52.251-8.659 72.35-21.647c23.775-15.364 33.87-22.847 39.282-43.69 5.41-20.844 1.401-47.7-14.632-64.135-16.033-16.434-39.882-21.546-58.12-23.65-8.118-.937-22.393.084-33.48 1.762z" fill="#fffffa"/></svg>