<svg xmlns="http://www.w3.org/2000/svg" width="200" height="200"><g fill="#fff" paint-order="markers fill stroke"><path d="M101.533 1.906c-54.622 0-98.902 44.28-98.902 98.902.033.937.08 1.872.14 2.807h10.255a88.264 88.264 0 01-.072-1.447c.023-23.457 9.21-45.224 25.845-61.76l4.816 5.121c-14.83 14.433-22.248 35.888-22.25 56.582.013.502.032 1.003.055 1.504h9.955a68.524 68.524 0 01-.17-2.893 68.516 68.516 0 0119.691-48.04l6.133 5.626c-10.844 11.205-17.423 26.937-17.447 42.53.01.926.042 1.852.096 2.777h10.117a51.576 51.576 0 01-.082-2.322c0-28.487 23.093-51.58 51.58-51.58a51.568 51.568 0 0137.2 15.92l-9.52 11.552 68.212 3.573-14.642-68.573-13.56 16.455a98.9 98.9 0 00-67.45-26.734zM99.457 197.555c54.622 0 98.902-44.28 98.903-98.902a99.137 99.137 0 00-.141-2.807h-10.255c.028.482.052.965.072 1.447-.023 23.457-9.209 45.224-25.845 61.76l-4.816-5.121c14.83-14.433 22.249-35.888 22.25-56.582a76.204 76.204 0 00-.054-1.504h-9.955c.077.963.133 1.927.17 2.892a68.515 68.515 0 01-19.692 48.041l-6.133-5.626c10.844-11.205 17.423-26.937 17.447-42.53a60.119 60.119 0 00-.095-2.777h-10.117c.044.773.072 1.548.082 2.322-.001 28.487-23.094 51.58-51.58 51.58a51.568 51.568 0 01-37.202-15.92l9.522-11.552-68.213-3.573 14.643 68.573 13.56-16.456a98.9 98.9 0 0067.45 26.735z"/></g></svg>