<?xml version="1.0" encoding="UTF-8" standalone="no"?>
<svg
   xmlns:dc="http://purl.org/dc/elements/1.1/"
   xmlns:cc="http://creativecommons.org/ns#"
   xmlns:rdf="http://www.w3.org/1999/02/22-rdf-syntax-ns#"
   xmlns:svg="http://www.w3.org/2000/svg"
   xmlns="http://www.w3.org/2000/svg"
   xmlns:sodipodi="http://sodipodi.sourceforge.net/DTD/sodipodi-0.dtd"
   xmlns:inkscape="http://www.inkscape.org/namespaces/inkscape"
   width="600"
   height="160"
   version="1.1"
   id="svg6"
   sodipodi:docname="spiky-button-hover.svg"
   inkscape:version="0.92.4 (5da689c313, 2019-01-14)">
  <metadata
     id="metadata12">
    <rdf:RDF>
      <cc:Work
         rdf:about="">
        <dc:format>image/svg+xml</dc:format>
        <dc:type
           rdf:resource="http://purl.org/dc/dcmitype/StillImage" />
      </cc:Work>
    </rdf:RDF>
  </metadata>
  <defs
     id="defs10" />
  <sodipodi:namedview
     pagecolor="#ffffff"
     bordercolor="#666666"
     borderopacity="1"
     objecttolerance="10"
     gridtolerance="10"
     guidetolerance="10"
     inkscape:pageopacity="0"
     inkscape:pageshadow="2"
     inkscape:window-width="1920"
     inkscape:window-height="1017"
     id="namedview8"
     showgrid="false"
     inkscape:zoom="2.4513035"
     inkscape:cx="348.71678"
     inkscape:cy="48.730471"
     inkscape:window-x="-8"
     inkscape:window-y="-8"
     inkscape:window-maximized="1"
     inkscape:current-layer="svg6" />
  <path
     d="m 83.59,136.22 c 0,0 -52.275,2.062 -68.69,-28.243 -16.415,-30.304 0.505,-66.417 38.386,-75.509 37.88,-9.091 41.416,8.334 103.288,7.576 61.871,-0.757 106.823,-21.213 114.904,-21.213 8.082,0 19.067,3.03 13.511,11.112 -5.556,8.081 -14.394,1.389 -17.299,12.753 -2.904,11.364 18.203,12.125 23.56,12.84 5.357,0.714 56.786,-0.893 78.393,-6.429 21.607,-5.536 63.393,-12.321 83.928,-8.393 20.536,3.929 20.893,14.822 13.036,17.679 -7.857,2.857 -19.286,-1.429 -20,10.536 -0.714,11.964 25.536,18.928 49.107,18.035 23.572,-0.893 36.429,-3.75 41.607,-5.535 5.179,-1.786 19.197,-7.679 25.09,-5.536 5.893,2.143 9.375,5.446 9.375,10 0,4.553 -2.59,10.09 -13.661,12.678 -11.071,2.59 -21.429,-0.714 -50.982,-0.446 -29.554,0.268 -33.572,2.321 -36.429,4.821 -2.857,2.5 -4.553,7.322 0.268,8.393 4.822,1.072 15.179,-4.553 21.607,-2.589 6.429,1.964 9.465,11.375 -2.232,17.446 -11.696,6.072 -52.321,-1.125 -123.75,-2.91 C 295.18,121.5 111.58,132.703 83.59,136.22 Z"
     id="path2"
     inkscape:connector-curvature="0"
     sodipodi:nodetypes="ccccscccscscccsscssccccc" />
  <path
     d="M588.102 58.397a5.525 7.542 65.198 01-3.761 8.303 5.525 7.542 65.198 01-9.505-1.174 5.525 7.542 65.198 013.761-8.304 5.525 7.542 65.198 019.505 1.175zM291.117 7.06a4.268 4.268 0 01-4.268 4.268 4.268 4.268 0 01-4.268-4.268 4.268 4.268 0 014.268-4.268 4.268 4.268 0 014.268 4.268zM530.709 25.902a4.167 4.293 0 01-4.167 4.293 4.167 4.293 0 01-4.167-4.293 4.167 4.293 0 014.167-4.293 4.167 4.293 0 014.167 4.293zM512.034 46.589a4.798 6.63 62.586 01-3.675 7.311 4.798 6.63 62.586 01-8.094-1.207 4.798 6.63 62.586 013.675-7.312 4.798 6.63 62.586 018.094 1.208zM314.827 20.937a6.902 6.01 23.583 01-8.73 2.746 6.902 6.01 23.583 01-3.922-8.268 6.902 6.01 23.583 018.73-2.746 6.902 6.01 23.583 013.922 8.268zM489.355 20.218a6.636 8.822 75.36 01-7.184 8.511 6.636 8.822 75.36 01-9.987-4.466 6.636 8.822 75.36 017.184-8.511 6.636 8.822 75.36 019.987 4.466z"
     paint-order="markers fill stroke"
     id="path4" />
</svg>
